<svg width="147" height="48" viewBox="0 0 147 48" fill="none" xmlns="http://www.w3.org/2000/svg">
<path d="M30.16 0.303999V34H21.952V20.128H9.184V34H0.976V0.303999H9.184V13.504H21.952V0.303999H30.16ZM63.4454 7.216L46.6454 46.72H37.8134L43.9574 33.088L33.0614 7.216H42.2294L48.4214 23.968L54.5654 7.216H63.4454ZM76.5895 6.832C78.4775 6.832 80.1255 7.216 81.5335 7.984C82.9735 8.752 84.0775 9.76 84.8455 11.008V7.216H93.0535V33.952C93.0535 36.416 92.5575 38.64 91.5655 40.624C90.6055 42.64 89.1175 44.24 87.1015 45.424C85.1175 46.608 82.6375 47.2 79.6615 47.2C75.6935 47.2 72.4775 46.256 70.0135 44.368C67.5495 42.512 66.1415 39.984 65.7895 36.784H73.9015C74.1575 37.808 74.7655 38.608 75.7255 39.184C76.6855 39.792 77.8695 40.096 79.2775 40.096C80.9735 40.096 82.3175 39.6 83.3095 38.608C84.3335 37.648 84.8455 36.096 84.8455 33.952V30.16C84.0455 31.408 82.9415 32.432 81.5335 33.232C80.1255 34 78.4775 34.384 76.5895 34.384C74.3815 34.384 72.3815 33.824 70.5895 32.704C68.7975 31.552 67.3735 29.936 66.3175 27.856C65.2935 25.744 64.7815 23.312 64.7815 20.56C64.7815 17.808 65.2935 15.392 66.3175 13.312C67.3735 11.232 68.7975 9.632 70.5895 8.512C72.3815 7.392 74.3815 6.832 76.5895 6.832ZM84.8455 20.608C84.8455 18.56 84.2695 16.944 83.1175 15.76C81.9975 14.576 80.6215 13.984 78.9895 13.984C77.3575 13.984 75.9655 14.576 74.8135 15.76C73.6935 16.912 73.1335 18.512 73.1335 20.56C73.1335 22.608 73.6935 24.24 74.8135 25.456C75.9655 26.64 77.3575 27.232 78.9895 27.232C80.6215 27.232 81.9975 26.64 83.1175 25.456C84.2695 24.272 84.8455 22.656 84.8455 20.608ZM111.184 34.384C108.56 34.384 106.192 33.824 104.08 32.704C102 31.584 100.352 29.984 99.1356 27.904C97.9516 25.824 97.3596 23.392 97.3596 20.608C97.3596 17.856 97.9676 15.44 99.1836 13.36C100.4 11.248 102.064 9.632 104.176 8.512C106.288 7.392 108.656 6.832 111.28 6.832C113.904 6.832 116.272 7.392 118.384 8.512C120.496 9.632 122.16 11.248 123.376 13.36C124.592 15.44 125.2 17.856 125.2 20.608C125.2 23.36 124.576 25.792 123.328 27.904C122.112 29.984 120.432 31.584 118.288 32.704C116.176 33.824 113.808 34.384 111.184 34.384ZM111.184 27.28C112.752 27.28 114.08 26.704 115.168 25.552C116.288 24.4 116.848 22.752 116.848 20.608C116.848 18.464 116.304 16.816 115.216 15.664C114.16 14.512 112.848 13.936 111.28 13.936C109.68 13.936 108.352 14.512 107.296 15.664C106.24 16.784 105.712 18.432 105.712 20.608C105.712 22.752 106.224 24.4 107.248 25.552C108.304 26.704 109.616 27.28 111.184 27.28ZM137.762 11.68C138.722 10.208 139.922 9.056 141.362 8.224C142.802 7.36 144.402 6.928 146.162 6.928V15.616H143.906C141.858 15.616 140.322 16.064 139.298 16.96C138.274 17.824 137.762 19.36 137.762 21.568V34H129.554V7.216H137.762V11.68Z" fill="url(#paint0_linear_0_5)"/>
<defs>
<linearGradient id="paint0_linear_0_5" x1="92.8511" y1="2.99457" x2="86.7776" y2="43.2597" gradientUnits="userSpaceOnUse">
<stop stop-color="#00F0C1"/>
<stop offset="1" stop-color="#00987A"/>
</linearGradient>
</defs>
</svg>
